Poster:
 
http://s10.postimage.org/psc2egdih/aaa.jpg


Amorosa the Revenge 2012 [Pinoy Tagalog] DVDRip EP.avi


Video
ID                               : 0
Format                           : MPEG-4 Visual
Format profile                   : Advanced Simple@L5
Format settings, BVOP            : 2
Format settings, QPel            : No
Format settings, GMC             : No warppoints
Format settings, Matrix          : Default (H.263)
Codec ID                         : XVID
Codec ID/Hint                    : XviD
Duration                         : 1h 43mn
Bit rate                         : 482 Kbps
Width                            : 640 pixels
Height                           : 366 pixels
Display aspect ratio             : 16:9
Frame rate                       : 25.000 fps
Color space                      : YUV
Chroma subsampling               : 4:2:0
Bit depth                        : 8 bits
Scan type                        : Progressive
Compression mode                 : Lossy
Bits/(Pixel*Frame)               : 0.082
Stream size                      : 359 MiB (51%)
Writing library                  : XviD 1.2.1 (UTC 2008-12-04)

Audio
ID                               : 1
Format                           : AC-3
Format/Info                      : Audio Coding 3
Mode extension                   : CM (complete main)
Codec ID                         : 2000
Duration                         : 1h 43mn
Bit rate mode                    : Constant
Bit rate                         : 448 Kbps
Channel(s)                       : 2 channels
Channel positions                : Front: L R
Sampling rate                    : 48.0 KHz
Bit depth                        : 16 bits
Compression mode                 : Lossy
Stream size                      : 333 MiB (48%)
Alignment                        : Aligned on interleaves
Interleave, duration             : 64 ms (1.60 video frames)
Interleave, preload duration     : 192 ms
                         
                            
                              
Imdb               : http://www.imdb.com/title/tt2364606/
Source             : NTSC DVD5-FURY... Thanks!
Genres             : Drama / Horror
Director           : Topel Lee
Audio Language     : Filipino | Tagalog
Country            : Philippines
Subtitles          : N/A                  



Cast:

Angel Aquino	   : Rosa
Enrique Gil        : Rommel
Martin del Rosario : Amiel
Jane Oineza        : Amanda
Empress Schuck     : Sandra
Xyriel Manabat     : Young Sandra
Carlo Aquino       : Jerry
Ejay Falcon        : William
Richard Quan       : Sgt. Villegas
Lilia Cuntapay     : Lulu
Mosang
Franco Daza
Lloyd Samartino
Nanding Josef
Nico Antonio
Jairus Aquino
                                                 
                                              

Plot:


Years ago, Amorosa (Angel Aquino), her husband, and her two boys Amiel and Rommel (Martin del Rosario and Enrique Gil)

got into a car accident. Her husband died in the accident, leaving her alone to take care of her boys. In the present,

she decides to move her family to a remote pension house. But once there, she discovers that the house is home to an angry

spirit seeking revenge for sins committed years ago. And as she deals with the fear of this spirit popping up everywhere,

she struggles to reconnect with Rommel, who hasnΓÇÖt been the same since the accident.                                                   


Screens:
 
 
http://s17.postimage.org/smb9jodjz/image.jpg 
http://s17.postimage.org/bztpalkm7/image.jpg 
http://s17.postimage.org/5an5ukza7/image.jpg 
http://s17.postimage.org/ln1sy22zj/image.jpg 
http://s17.postimage.org/ujcl1ztlr/image.jpg